<svg width="31" height="22" viewBox="0 0 31 22" fill="none" xmlns="http://www.w3.org/2000/svg">
<path d="M15.197 16.6515V17.3216C15.197 17.3974 15.2661 17.4679 15.3425 17.4679H15.7261C15.8134 17.4679 15.8738 17.3983 15.8738 17.3216V16.6295C16.3742 16.5691 16.8281 16.3998 17.1626 16.13C17.5865 15.7805 17.8602 15.2916 17.8541 14.6767C17.8541 13.9775 17.54 13.5477 17.1252 13.2475C16.6057 12.8808 15.9363 12.7604 15.386 12.5792C14.9151 12.4241 14.5885 12.253 14.5885 11.8999C14.5885 11.7276 14.6575 11.5737 14.8252 11.4626C14.9612 11.3595 15.1979 11.2991 15.4946 11.2991C16.0849 11.2991 16.6048 11.5094 17.0275 11.758C17.0952 11.7994 17.1739 11.7787 17.2143 11.7082L17.6291 10.8005C17.6682 10.73 17.6469 10.6603 17.5696 10.6198C17.2047 10.4148 16.6552 10.1984 15.8668 10.1494V9.4384C15.8668 9.36169 15.8104 9.29116 15.7222 9.29116H15.3408C15.2626 9.29116 15.1931 9.36081 15.1931 9.4384V10.1565C14.6245 10.2063 14.1689 10.3756 13.8552 10.6127C13.4256 10.9451 13.1985 11.4014 13.1985 11.9506C13.1985 12.678 13.5338 13.0853 13.9864 13.3859C14.5185 13.7267 15.128 13.8457 15.6292 14.0264C16.0831 14.1979 16.4167 14.387 16.4167 14.7736C16.4167 14.9561 16.3598 15.1682 16.1544 15.3154C16.0019 15.4349 15.7661 15.5058 15.4342 15.5058C14.7201 15.5058 14.1784 15.1854 13.7636 14.9359C13.6763 14.8737 13.6137 14.9081 13.5855 14.9857L13.1624 15.8717C13.1251 15.9519 13.1524 16.0216 13.2215 16.0613C13.6507 16.3341 14.3096 16.6097 15.197 16.6515ZM15.5002 19.6116C18.887 19.6116 21.6427 16.8151 21.6427 13.378C21.6427 9.94093 18.887 7.14437 15.5002 7.14437C12.1125 7.14437 9.35686 9.94093 9.35686 13.378C9.35773 16.816 12.1125 19.6116 15.5002 19.6116ZM15.5002 8.73881C18.0209 8.73881 20.072 10.8208 20.072 13.3784C20.072 15.9365 18.02 18.0181 15.5002 18.0181C12.9787 18.0181 10.9284 15.9361 10.9284 13.3784C10.9284 10.8204 12.9787 8.73881 15.5002 8.73881ZM0 4.75689V22H31V4.75689H0ZM29.4289 20.4064H1.57157V6.35133H29.4293V20.4064H29.4289ZM4.17738 15.3974H2.60668V19.3357H6.48738V17.7412H4.17781V15.3974H4.17738ZM4.17694 8.99625H6.48651V7.40225H2.60625V11.3405H4.17651V8.99625H4.17694ZM26.8226 11.3401H28.3938V7.40181H24.5135V8.99581H26.8226V11.3401ZM28.3942 15.3974H26.8231V17.7408H24.5144V19.3344H28.3955V15.397H28.3942V15.3974ZM27.4729 2.37866H3.52799V3.97267H27.4729V2.37866ZM24.1338 0H6.86703V1.59312H24.1338V0Z" fill="#01ACFC"/>
</svg>
